<svg width="25" height="24" viewBox="0 0 25 24" fill="none" xmlns="http://www.w3.org/2000/svg">
<g clip-path="url(#clip0_5208_8025)">
<path d="M12.666 0C6.03866 0 0.666016 5.37264 0.666016 12C0.666016 17.6275 4.54058 22.3498 9.7673 23.6467V15.6672H7.2929V12H9.7673V10.4198C9.7673 6.33552 11.6158 4.4424 15.6257 4.4424C16.386 4.4424 17.6979 4.59168 18.2345 4.74048V8.06448C17.9513 8.03472 17.4593 8.01984 16.8483 8.01984C14.8807 8.01984 14.1204 8.76528 14.1204 10.703V12H18.0401L17.3667 15.6672H14.1204V23.9122C20.0623 23.1946 24.6665 18.1354 24.6665 12C24.666 5.37264 19.2934 0 12.666 0Z" fill="currentColor"/>
</g>
<defs>
<clipPath id="clip0_5208_8025">
<rect width="24" height="24" fill="white" transform="translate(0.666016)"/>
</clipPath>
</defs>
</svg>
