<svg width="25" height="24" viewBox="0 0 25 24" fill="none" xmlns="http://www.w3.org/2000/svg">
<g clip-path="url(#clip0_5208_8029)">
<path d="M12.666 2.16094C15.8723 2.16094 16.252 2.175 17.5129 2.23125C18.6848 2.28281 19.3176 2.47969 19.7395 2.64375C20.2973 2.85938 20.7004 3.12188 21.1176 3.53906C21.5395 3.96094 21.7973 4.35938 22.0129 4.91719C22.177 5.33906 22.3738 5.97656 22.4254 7.14375C22.4816 8.40937 22.4957 8.78906 22.4957 11.9906C22.4957 15.1969 22.4816 15.5766 22.4254 16.8375C22.3738 18.0094 22.177 18.6422 22.0129 19.0641C21.7973 19.6219 21.5348 20.025 21.1176 20.4422C20.6957 20.8641 20.2973 21.1219 19.7395 21.3375C19.3176 21.5016 18.6801 21.6984 17.5129 21.75C16.2473 21.8062 15.8676 21.8203 12.666 21.8203C9.45977 21.8203 9.08008 21.8062 7.81914 21.75C6.64727 21.6984 6.01445 21.5016 5.59258 21.3375C5.03477 21.1219 4.63164 20.8594 4.21445 20.4422C3.79258 20.0203 3.53477 19.6219 3.31914 19.0641C3.15508 18.6422 2.9582 18.0047 2.90664 16.8375C2.85039 15.5719 2.83633 15.1922 2.83633 11.9906C2.83633 8.78438 2.85039 8.40469 2.90664 7.14375C2.9582 5.97187 3.15508 5.33906 3.31914 4.91719C3.53477 4.35938 3.79727 3.95625 4.21445 3.53906C4.63633 3.11719 5.03477 2.85938 5.59258 2.64375C6.01445 2.47969 6.65195 2.28281 7.81914 2.23125C9.08008 2.175 9.45977 2.16094 12.666 2.16094ZM12.666 0C9.4082 0 9.00039 0.0140625 7.7207 0.0703125C6.4457 0.126563 5.56914 0.332812 4.80977 0.628125C4.01758 0.9375 3.34727 1.34531 2.68164 2.01562C2.01133 2.68125 1.60352 3.35156 1.29414 4.13906C0.998828 4.90313 0.792578 5.775 0.736328 7.05C0.680078 8.33437 0.666016 8.74219 0.666016 12C0.666016 15.2578 0.680078 15.6656 0.736328 16.9453C0.792578 18.2203 0.998828 19.0969 1.29414 19.8563C1.60352 20.6484 2.01133 21.3188 2.68164 21.9844C3.34727 22.65 4.01758 23.0625 4.80508 23.3672C5.56914 23.6625 6.44102 23.8687 7.71602 23.925C8.9957 23.9812 9.40352 23.9953 12.6613 23.9953C15.9191 23.9953 16.327 23.9812 17.6066 23.925C18.8816 23.8687 19.7582 23.6625 20.5176 23.3672C21.3051 23.0625 21.9754 22.65 22.641 21.9844C23.3066 21.3188 23.7191 20.6484 24.0238 19.8609C24.3191 19.0969 24.5254 18.225 24.5816 16.95C24.6379 15.6703 24.652 15.2625 24.652 12.0047C24.652 8.74688 24.6379 8.33906 24.5816 7.05938C24.5254 5.78438 24.3191 4.90781 24.0238 4.14844C23.7285 3.35156 23.3207 2.68125 22.6504 2.01562C21.9848 1.35 21.3145 0.9375 20.527 0.632812C19.7629 0.3375 18.891 0.13125 17.616 0.075C16.3316 0.0140625 15.9238 0 12.666 0Z" fill="currentColor"/>
<path d="M12.666 5.83594C9.26289 5.83594 6.50195 8.59688 6.50195 12C6.50195 15.4031 9.26289 18.1641 12.666 18.1641C16.0691 18.1641 18.8301 15.4031 18.8301 12C18.8301 8.59688 16.0691 5.83594 12.666 5.83594ZM12.666 15.9984C10.4582 15.9984 8.66758 14.2078 8.66758 12C8.66758 9.79219 10.4582 8.00156 12.666 8.00156C14.8738 8.00156 16.6645 9.79219 16.6645 12C16.6645 14.2078 14.8738 15.9984 12.666 15.9984Z" fill="currentColor"/>
<path d="M20.5129 5.59214C20.5129 6.38902 19.866 7.0312 19.0738 7.0312C18.277 7.0312 17.6348 6.38433 17.6348 5.59214C17.6348 4.79526 18.2816 4.15308 19.0738 4.15308C19.866 4.15308 20.5129 4.79995 20.5129 5.59214Z" fill="currentColor"/>
</g>
<defs>
<clipPath id="clip0_5208_8029">
<rect width="24" height="24" fill="white" transform="translate(0.666016)"/>
</clipPath>
</defs>
</svg>
