<svg width="25" height="24" viewBox="0 0 25 24" fill="none" xmlns="http://www.w3.org/2000/svg">
<g clip-path="url(#clip0_5208_8033)">
<path d="M22.8895 0H2.43789C1.4582 0 0.666016 0.773438 0.666016 1.72969V22.2656C0.666016 23.2219 1.4582 24 2.43789 24H22.8895C23.8691 24 24.666 23.2219 24.666 22.2703V1.72969C24.666 0.773438 23.8691 0 22.8895 0ZM7.78633 20.4516H4.22383V8.99531H7.78633V20.4516ZM6.00508 7.43438C4.86133 7.43438 3.93789 6.51094 3.93789 5.37187C3.93789 4.23281 4.86133 3.30937 6.00508 3.30937C7.14414 3.30937 8.06758 4.23281 8.06758 5.37187C8.06758 6.50625 7.14414 7.43438 6.00508 7.43438ZM21.1176 20.4516H17.5598V14.8828C17.5598 13.5562 17.5363 11.8453 15.7082 11.8453C13.8566 11.8453 13.5754 13.2937 13.5754 14.7891V20.4516H10.0223V8.99531H13.4348V10.5609H13.4816C13.9551 9.66094 15.1176 8.70938 16.8473 8.70938C20.452 8.70938 21.1176 11.0813 21.1176 14.1656V20.4516Z" fill="currentColor"/>
</g>
<defs>
<clipPath id="clip0_5208_8033">
<rect width="24" height="24" fill="white" transform="translate(0.666016)"/>
</clipPath>
</defs>
</svg>
