<svg viewBox="0 0 14 12" fill="none" xmlns="http://www.w3.org/2000/svg">
<path d="M1.16797 3.40733L8.94575 3.40734M8.94575 3.40734C8.94575 4.48122 9.8163 5.35178 10.8902 5.35178C11.9641 5.35178 12.8346 4.48122 12.8346 3.40733C12.8346 2.33345 11.9641 1.46289 10.8902 1.46289C9.8163 1.46289 8.94575 2.33345 8.94575 3.40734ZM5.05686 8.59252L12.8346 8.59252M5.05686 8.59252C5.05686 9.66641 4.1863 10.537 3.11241 10.537C2.03853 10.537 1.16797 9.66641 1.16797 8.59252C1.16797 7.51863 2.03853 6.64808 3.11241 6.64808C4.1863 6.64808 5.05686 7.51863 5.05686 8.59252Z" stroke="#222222" stroke-width="1.2963" stroke-linecap="round" stroke-linejoin="round"/>
</svg>
