<svg width="46" height="46" viewBox="0 0 46 46" fill="none" xmlns="http://www.w3.org/2000/svg">
<g clip-path="url(#clip0_5114_2853)">
<path d="M24.6101 3.58161L29.8344 14.1288C29.9533 14.3965 30.1402 14.6283 30.3765 14.8013C30.6129 14.9742 30.8905 15.0822 31.1816 15.1145L42.7143 16.823C43.0485 16.866 43.3633 17.003 43.6222 17.2182C43.8811 17.4333 44.0736 17.7177 44.1768 18.0381C44.2803 18.3586 44.2902 18.7018 44.2057 19.0277C44.1216 19.3536 43.9462 19.6488 43.7001 19.8788L35.3872 28.1259C35.1753 28.3241 35.0159 28.5722 34.9242 28.8477C34.8322 29.1231 34.8109 29.4172 34.8615 29.703L36.8658 41.3015C36.9239 41.635 36.8871 41.9777 36.76 42.2911C36.6328 42.6046 36.4202 42.876 36.1462 43.0748C35.8725 43.2732 35.5482 43.3909 35.2108 43.4145C34.8733 43.4379 34.5359 43.3662 34.2372 43.2072L23.8544 37.7201C23.5886 37.5896 23.2963 37.5219 23.0002 37.5219C22.704 37.5219 22.4117 37.5896 22.1459 37.7201L11.763 43.2072C11.4643 43.3662 11.127 43.4379 10.7895 43.4145C10.4521 43.3909 10.1279 43.2732 9.85407 43.0748C9.58018 42.876 9.36752 42.6046 9.2403 42.2911C9.11311 41.9777 9.07641 41.635 9.13444 41.3015L11.1387 29.5716C11.1895 29.2858 11.168 28.9917 11.0762 28.7163C10.9844 28.4408 10.8252 28.1927 10.613 27.9945L2.20159 19.8788C1.95274 19.6425 1.77773 19.3391 1.69777 19.0055C1.61781 18.6718 1.63633 18.322 1.75108 17.9987C1.86583 17.6753 2.07188 17.3921 2.34429 17.1835C2.6167 16.9748 2.94377 16.8496 3.28587 16.823L14.8187 15.1145C15.1098 15.0822 15.3874 14.9742 15.6238 14.8013C15.8602 14.6283 16.0471 14.3965 16.1659 14.1288L21.3901 3.58161C21.5324 3.27443 21.7596 3.01436 22.0449 2.83209C22.3302 2.64982 22.6616 2.55298 23.0002 2.55298C23.3387 2.55298 23.6702 2.64982 23.9554 2.83209C24.2407 3.01436 24.4679 3.27443 24.6101 3.58161Z" stroke="#3B0B93" stroke-width="4" stroke-linecap="round" stroke-linejoin="round"/>
</g>
<defs>
<clipPath id="clip0_5114_2853">
<rect width="46" height="46" fill="white"/>
</clipPath>
</defs>
</svg>
