<svg width="25" height="18" viewBox="0 0 25 18" fill="none" xmlns="http://www.w3.org/2000/svg">
<path d="M24.427 4.20005C24.427 4.20005 24.1926 2.54536 23.4707 1.8188C22.5566 0.862549 21.5348 0.857861 21.066 0.801611C17.7098 0.557861 12.6707 0.557861 12.6707 0.557861H12.6613C12.6613 0.557861 7.62227 0.557861 4.26602 0.801611C3.79727 0.857861 2.77539 0.862549 1.86133 1.8188C1.13945 2.54536 0.909766 4.20005 0.909766 4.20005C0.909766 4.20005 0.666016 6.14536 0.666016 8.08599V9.90474C0.666016 11.8454 0.905078 13.7907 0.905078 13.7907C0.905078 13.7907 1.13945 15.4454 1.85664 16.1719C2.7707 17.1282 3.9707 17.0954 4.50508 17.1985C6.42695 17.3813 12.666 17.4375 12.666 17.4375C12.666 17.4375 17.7098 17.4282 21.066 17.1891C21.5348 17.1329 22.5566 17.1282 23.4707 16.1719C24.1926 15.4454 24.427 13.7907 24.427 13.7907C24.427 13.7907 24.666 11.85 24.666 9.90474V8.08599C24.666 6.14536 24.427 4.20005 24.427 4.20005ZM10.1863 12.1125V5.36724L16.6691 8.75161L10.1863 12.1125Z" fill="currentColor"/>
</svg>
